<svg version="1.1" xmlns="http://www.w3.org/2000/svg" xmlns:xlink="http://www.w3.org/1999/xlink" viewBox="2.304 1.687 455.393 82.645" enable-background="new 2.304 1.687 455.393 82.645" xml:space="preserve">
	<path d="M113.285 27.765c-1.863-1.961-4.412-3.529-7.451-4.706-3.039-1.078-6.863-1.666-11.373-1.666-3.921 0-7.549.294-10.98.784-3.431.49-5.882 1.078-7.353 1.765l1.275 8.823c1.47-.49 3.627-1.078 6.373-1.568 2.746-.49 5.98-.784 9.706-.784 2.941 0 5.294.392 7.157 1.274 1.863.784 3.333 1.961 4.412 3.333 1.078 1.373 1.765 2.941 2.157 4.608.392 1.666.588 3.431.588 5.294v2.941c-4.02-.98-8.235-1.471-12.451-1.471-3.137 0-6.176.294-9.313.98-3.04.686-5.785 1.666-8.137 3.137a18.12 18.12 0 0 0-5.785 5.785c-1.471 2.354-2.255 5.294-2.255 8.726 0 3.922.687 7.059 2.157 9.608 1.471 2.549 3.432 4.51 5.785 5.882 2.451 1.471 5.196 2.451 8.333 2.94 3.137.588 6.275.882 9.608.882 4.314 0 8.529-.294 12.647-.882 4.118-.588 7.451-1.078 9.902-1.567v-37.55c0-3.333-.392-6.47-1.177-9.313-.59-2.843-1.963-5.294-3.825-7.255zm-5.392 47.451c-1.373.294-3.138.489-5.294.687-2.157.195-4.51.294-7.157.294-4.51 0-8.039-.784-10.687-2.255-2.647-1.471-3.921-4.216-3.921-8.138 0-1.862.49-3.432 1.471-4.706.98-1.274 2.157-2.254 3.627-3.039 1.471-.784 3.137-1.274 5.098-1.666 1.863-.295 3.823-.49 5.784-.49 2.157 0 4.216.098 6.176.393 1.961.294 3.627.589 5 1.078v17.844l-.097-.002zM181.716 62.177L152.01 1.687h-12.647v80.196h10.49v-60.49l29.706 60.49h12.647V1.687h-10.49zM44.755 62.177L14.951 1.687H2.304v80.196h10.49v-60.49l29.804 60.49h12.647V1.687h-10.49zM222.206 1.687h-6.373v80.196h39.412v-6.275h-33.039zM296.52 1.687l-25.588 80.196h6.568l6.667-22.061h30.294l6.862 22.061h6.568L302.303 1.687h-5.783zm-10.392 51.862l13.235-41.568 13.234 41.568h-26.469zM377.893 40.02c3.333-1.372 5.98-3.529 7.941-6.568 1.862-3.039 2.843-6.667 2.843-10.784 0-6.863-1.862-12.157-5.588-15.687-3.726-3.529-9.216-5.294-16.471-5.294h-20.294v80.196h22.646c7.06 0 12.451-2.061 16.274-6.079 3.823-4.02 5.687-9.511 5.687-16.568 0-4.804-1.177-8.922-3.628-12.451-2.449-3.53-5.587-5.784-9.41-6.765zm-25-32.059h13.727c5.098 0 9.02 1.177 11.568 3.529s3.726 5.98 3.726 10.98c0 4.902-1.274 8.627-3.824 11.078-2.549 2.451-6.176 3.726-10.882 3.726H352.99V7.961h-.097zm27.352 63.432c-2.646 2.843-6.372 4.312-11.078 4.312h-16.274V43.647h17.256c4.41.098 7.939 1.568 10.392 4.313s3.726 6.568 3.726 11.372c-.002 5.198-1.374 9.217-4.022 12.061zM455.344 51.491c-1.471-2.843-3.726-5.393-6.862-7.549-3.039-2.157-7.55-4.216-13.529-6.177-5.883-1.961-10.196-4.216-12.843-6.667-2.647-2.45-3.922-5.588-3.922-9.51 0-4.117 1.371-7.549 4.216-10.195 2.745-2.647 6.666-3.922 11.567-3.922 5 0 9.021 1.568 11.863 4.804 2.94 3.235 4.411 7.451 4.411 12.647v.392h6.961v-.392c0-6.961-2.157-12.745-6.471-17.255C446.422 3.255 440.834 1 434.068 1c-6.666 0-12.156 1.961-16.274 5.784-4.215 3.823-6.372 8.922-6.372 15 0 6.177 2.157 11.177 6.471 15 3.235 2.844 8.333 5.49 15.196 7.844 6.765 2.255 11.47 4.705 13.921 7.156 2.451 2.451 3.628 5.883 3.628 10.196s-1.471 7.843-4.412 10.49c-2.94 2.646-6.861 3.922-11.765 3.922-5.588 0-10.098-1.569-13.333-4.706-3.235-3.138-4.902-7.451-4.902-12.844v-.392h-6.861v.393c0 4.901 1.078 9.216 3.234 12.745 2.156 3.628 5.195 6.372 9.117 8.334 3.823 1.961 8.138 2.843 12.843 2.843 6.961 0 12.551-1.961 16.767-5.784 4.215-3.823 6.372-8.922 6.372-15.196-.099-3.921-.884-7.353-2.354-10.294z"></path>
</svg>